<svg xmlns="http://www.w3.org/2000/svg" viewBox="0 0 500 500">
  <rect width="500" height="500" rx="80" fill="#0d0d0e"/>
  <g transform="translate(0,500) scale(0.1,-0.1)" fill="#e8073f" stroke="none">
    <path d="M890 4365 c0 -8 11 -38 24 -67 46 -103 64 -144 109 -248 109 -255
280 -649 297 -687 11 -24 20 -45 20 -48 0 -2 11 -28 24 -57 39 -87 59 -133
156 -358 118 -274 216 -500 246 -568 13 -29 24 -55 24 -57 0 -2 11 -28 24 -57
27 -60 54 -122 84 -190 11 -25 40 -67 63 -93 83 -90 140 -105 399 -105 193 1
287 12 339 39 13 7 44 32 68 54 57 52 117 172 305 602 21 50 45 104 52 120 8
17 26 57 40 90 41 94 36 90 112 93 237 9 314 19 377 50 257 127 330 471 156
731 -77 115 -202 201 -314 216 l-50 7 -39 82 c-29 61 -56 98 -110 152 -88 88
-172 130 -301 152 -84 15 -98 14 -176 -1 -184 -36 -321 -139 -399 -301 -40
-83 -41 -85 -73 -79 -49 8 -145 -13 -214 -47 -109 -54 -209 -164 -251 -275 -9
-25 -19 -45 -22 -45 -4 0 -73 154 -155 343 -147 341 -165 381 -202 467 -41 94
-65 100 -369 100 -208 0 -244 -2 -244 -15z m2184 -275 c116 -44 218 -153 256
-274 34 -107 27 -101 111 -101 89 -1 146 -24 213 -85 202 -186 194 -510 -16
-637 -85 -52 -130 -55 -789 -51 l-594 3 -60 24 c-45 17 -77 41 -126 90 -86 87
-111 149 -111 273 0 125 34 209 119 289 90 85 211 123 315 100 26 -6 53 -8 61
-6 7 3 23 40 36 82 47 161 156 268 316 310 69 18 197 10 269 -17z m-643 -1253
c104 -1 189 -5 189 -9 0 -3 -18 -44 -39 -90 -22 -45 -74 -157 -116 -248 -42
-91 -80 -169 -85 -174 -5 -5 -17 10 -29 35 -33 72 -221 513 -221 520 0 3 25
-3 57 -13 46 -16 89 -20 244 -21z"/>
    <path d="M930 1503 c4 -16 17 -55 29 -88 13 -33 31 -85 41 -115 10 -30 44
-127 75 -215 31 -88 65 -182 74 -210 l18 -50 95 -3 94 -3 11 33 c14 42 97 280
163 468 48 136 70 201 70 208 0 1 -34 2 -76 0 l-76 -3 -33 -100 c-18 -55 -56
-174 -85 -265 -29 -91 -56 -168 -59 -172 -4 -4 -32 68 -63 160 -32 92 -74 215
-95 275 l-37 107 -77 0 -78 0 9 -27z"/>
    <path d="M1822 1518 c-7 -7 -12 -17 -12 -24 0 -6 -9 -33 -19 -60 -31 -80 -76
-198 -145 -384 -35 -96 -69 -187 -75 -202 l-11 -28 79 0 79 0 24 73 25 72 145
3 145 3 22 -63 c12 -35 24 -69 26 -75 3 -9 29 -13 85 -13 44 0 80 3 80 6 0 3
-48 133 -107 288 -113 298 -153 407 -153 412 0 11 -177 3 -188 -8z m140 -283
l47 -135 -95 0 c-52 0 -94 3 -94 8 0 14 85 262 90 262 3 0 26 -61 52 -135z"/>
    <path d="M2332 1263 l3 -268 31 -55 c109 -194 441 -183 532 18 14 31 17 81 20
305 l3 267 -75 0 -76 0 0 -242 c0 -225 -2 -245 -20 -276 -42 -68 -132 -92
-197 -52 -60 36 -63 53 -63 325 l0 245 -81 0 -81 0 4 -267z"/>
    <path d="M3080 1175 l0 -355 235 0 235 0 0 65 0 64 -157 3 -158 3 -3 288 -2
287 -75 0 -75 0 0 -355z"/>
    <path d="M3510 1465 l0 -65 110 0 110 0 0 -290 0 -290 75 0 75 0 0 290 0 290
105 0 105 0 0 65 0 65 -290 0 -290 0 0 -65z"/>
  </g>
</svg>
